<svg width="140" height="36" viewBox="0 0 140 36" fill="none" xmlns="http://www.w3.org/2000/svg">
<path d="M9.37775 35.283C3.24129 35.283 0 27.4012 0 19.2203C0 10.4409 3.88955 0.96344 10.4748 0.96344C12.5692 0.96344 13.7161 2.06049 14.3145 3.20741C9.02575 3.75594 4.93674 10.3911 4.93674 19.3699C4.93674 24.5559 7.13084 28.4983 10.0759 28.4983C13.7161 28.4983 15.1123 22.8634 15.1123 18.6717C15.1123 12.2361 13.5665 8.14708 11.6716 8.14708C11.3724 8.14708 11.1231 8.19695 10.8737 8.29668C11.3225 7.24949 12.3697 6.6511 13.7161 6.6511C17.6056 6.6511 19.2542 11.89 19.2542 18.1232C19.2542 26.9524 16.0627 35.283 9.37775 35.283Z" fill="#2D3748"/>
<path d="M51.563 35.283H49.3689C46.3769 35.283 45.3298 32.5404 44.9308 29.0468H44.8311C43.8836 32.2881 42.0386 35.283 38.5949 35.283C35.8523 35.283 34.5059 32.7398 34.104 29.8975H34.0043C33.0569 33.1388 31.2617 35.283 27.1199 35.283C23.5794 35.283 22.5322 31.7425 22.5322 28.598V19.0707C22.5322 17.8739 21.1858 17.4251 20.1885 16.9264L27.0729 12.8374V28.5482C29.5662 28.4484 33.0099 26.3042 33.0099 23.1626V13.2364C33.0099 12.0396 31.6635 11.5908 30.6662 11.0921L37.5507 6.90336V28.5511C40.044 28.4514 43.4877 26.3071 43.4877 23.1656V7.05003C43.4877 5.85324 42.1413 5.40445 41.1439 4.90579L48.0284 0.717041V24.509C48.0284 26.7031 48.7265 28.4983 50.0729 28.4983H54.0622C55.1592 28.4983 56.007 27.6007 56.8048 26.6533C56.3032 29.5455 55.5054 35.283 51.563 35.283Z" fill="#2D3748"/>
<path d="M68.6978 3.79907C70.1164 3.79907 72.4779 3.88107 72.4779 6.21804C72.4779 7.43983 71.539 8.09992 70.8994 8.33772V8.45661C71.9982 8.77641 72.7198 9.457 72.7198 10.6378C72.7198 13.1388 70.4402 13.4996 68.6814 13.4996C67.3817 13.4996 66.4223 13.2413 66 13.1388V4.01637C66.4756 3.95897 67.8368 3.79907 68.6978 3.79907ZM68.8372 4.89786C68.3165 4.89786 67.5785 4.99626 67.5785 4.99626V7.99742H68.8372C70.4361 7.99742 70.8953 7.27583 70.8953 6.31644C70.8953 4.87736 69.2964 4.89786 68.8372 4.89786ZM68.8946 8.97731H67.5744V12.2368C67.5744 12.2368 68.255 12.3967 68.8946 12.3967C70.6329 12.3967 71.0552 11.3963 71.0552 10.6378C71.0552 9.3176 70.0754 8.97731 68.8946 8.97731Z" fill="#2D3748"/>
<path d="M77.8573 13.5979C75.6966 13.5979 74.0771 11.9785 74.0771 8.678C74.0771 4.43866 76.4961 3.77856 77.9352 3.77856C79.4358 3.77856 81.7933 4.45916 81.7933 8.678C81.7974 11.9785 79.9975 13.5979 77.8573 13.5979ZM77.9393 4.91835C77.0578 4.91835 75.7171 5.17665 75.7171 8.678C75.7171 11.22 76.6191 12.4582 77.9393 12.4582C79.3374 12.4582 80.1615 11.22 80.1615 8.678C80.1574 5.17665 78.7798 4.91835 77.9393 4.91835Z" fill="#2D3748"/>
<path d="M86.8771 13.4995C84.6755 13.4995 83.3389 11.958 83.3389 8.678C83.3389 4.53705 85.7168 3.77856 87.2789 3.77856C88.1399 3.77856 88.718 3.87696 89.0378 3.93846V5.23815C88.718 5.13975 87.8775 4.99625 87.3978 4.99625C86.4384 4.99625 84.9788 5.31604 84.9788 8.678C84.9788 11.22 85.7988 12.2163 87.5003 12.2163C87.9185 12.2163 88.6811 12.0154 89.0419 11.7981V13.0567C88.8 13.1592 88.2998 13.4995 86.8771 13.4995Z" fill="#2D3748"/>
<path d="M94.0802 5.17662V13.3191H92.5017V5.17662H89.9434V3.95483H96.6427V5.17662H94.0802Z" fill="#2D3748"/>
<path d="M101.522 13.5979C99.3617 13.5979 97.7422 11.9785 97.7422 8.678C97.7422 4.43866 100.161 3.77856 101.6 3.77856C103.101 3.77856 105.458 4.45916 105.458 8.678C105.462 11.9785 103.663 13.5979 101.522 13.5979ZM101.6 4.91835C100.719 4.91835 99.3781 5.17665 99.3781 8.678C99.3781 11.22 100.276 12.4582 101.6 12.4582C102.998 12.4582 103.818 11.22 103.818 8.678C103.822 5.17665 102.441 4.91835 101.6 4.91835Z" fill="#2D3748"/>
<path d="M112.104 13.3191V8.94038C111.403 9.67837 110.464 10.0597 109.484 10.0597C107.906 10.0597 106.905 9.19867 106.905 7.46029V3.95893H108.484V6.7387C108.484 8.35818 109.123 8.83788 110.124 8.83788C111.063 8.83788 111.862 8.23928 112.084 7.63659V3.95483H113.682V13.315H112.104V13.3191Z" fill="#2D3748"/>
<path d="M121.201 13.3192V8.97733H117.401V13.3192H115.822V3.95898H117.401V7.85804H121.201V3.95898H122.78V13.3192H121.201Z" fill="#2D3748"/>
<path d="M130.886 13.397C129.906 13.397 129.767 12.0358 129.767 12.0358C128.926 13.1551 127.987 13.5774 127.008 13.5774C125.786 13.5774 124.408 12.9378 124.408 11.019C124.408 8.49758 126.007 7.71859 128.467 7.71859H129.726V6.8371C129.726 4.97573 128.668 4.95522 127.647 4.95522C126.745 4.95522 125.827 5.13562 125.068 5.35702V4.15573C125.769 3.95483 126.967 3.71704 128.57 3.71704C131.39 3.71704 131.308 5.87771 131.308 7.71859V11.2568C131.308 11.9374 131.448 12.4376 132.21 12.4171V13.2781C132.026 13.3191 131.604 13.397 130.886 13.397ZM129.726 8.75998H128.385C127.147 8.75998 126.024 9.03877 126.024 10.6788C126.024 11.6996 126.462 12.2572 127.364 12.2572C128.865 12.2572 129.726 10.6788 129.726 10.6788V8.75998Z" fill="#2D3748"/>
<path d="M138.425 13.3192V9.51855H137.745C137.023 9.51855 136.384 9.73995 135.724 11.4373L135.002 13.3192H133.141L134.141 11.2405C134.822 9.82194 135.121 9.66205 135.719 9.28075V9.16185C135.08 9.02245 133.518 8.58376 133.518 6.68138C133.518 4.15991 135.916 3.78271 137.38 3.78271C138.401 3.78271 139.479 3.94262 140 4.00412V13.3233H138.425V13.3192ZM138.425 5.0004C138.425 5.0004 137.704 4.90201 137.245 4.90201C136.384 4.90201 135.166 5.0414 135.166 6.68138C135.166 7.50137 135.527 8.57966 137.388 8.57966H138.43V5.0004H138.425Z" fill="#2D3748"/>
<path d="M70.7618 28.2987L69.793 25.871C69.3741 24.7937 68.899 24.356 68.1509 24.356H67.4402V28.2987H66V19.7588H67.4402V23.3349H68.005C68.6633 23.3349 69.1197 23.1703 69.5574 22.078L69.9239 21.1653C70.2157 20.4358 70.5636 19.7251 71.5287 19.7251H72.1122V20.9483H72.0037C71.2182 20.9483 71.0349 21.3299 70.7282 22.3174C70.4738 23.1216 70.0175 23.5406 69.7968 23.6865V23.7949C70.0885 23.8847 70.6534 24.2513 71.1284 25.381L72.3329 28.3024H70.7618V28.2987Z" fill="#2D3748"/>
<path d="M77.1474 28.7737C76.5451 30.8011 76.0887 32.0393 74.8656 32.0393C74.5177 32.0393 74.2446 31.9832 74.1548 31.9495V30.6553C74.1548 30.6553 74.484 30.7114 74.7758 30.7114C75.3593 30.7114 75.8344 30.3111 75.8344 29.5256C75.8344 28.9233 75.7783 28.8485 75.6511 28.467L72.9316 19.7625H74.5738L76.5975 27.2064L78.3855 19.7625H79.8257L77.1474 28.7737Z" fill="#2D3748"/>
<path d="M84.9953 28.2987L83.3158 25.0518L81.711 28.2987H80.125L82.6799 24.1017L80.1624 19.7588H81.8943L83.4467 22.8074L84.9243 19.7588H86.4579L84.1237 23.8286L86.7497 28.2987H84.9953Z" fill="#2D3748"/>
<path d="M92.8989 28.2987V24.3373H89.4314V28.2987H87.9912V19.7588H89.4314V23.3161H92.8989V19.7588H94.3391V28.2987H92.8989Z" fill="#2D3748"/>
<path d="M100.564 28.2987V24.8311H99.9429C99.2846 24.8311 98.701 25.0331 98.0988 26.5817L97.4404 28.2987H95.7422L96.6549 26.4022C97.2758 25.1079 97.5489 24.962 98.0951 24.6141V24.5057C97.5115 24.3785 96.0863 23.9782 96.0863 22.2426C96.0863 19.9421 98.2746 19.5979 99.61 19.5979C100.541 19.5979 101.525 19.7438 102 19.7999V28.3024H100.564V28.2987ZM100.564 20.7089C100.564 20.7089 99.9055 20.6191 99.4866 20.6191C98.701 20.6191 97.5901 20.7463 97.5901 22.2426C97.5901 22.9907 97.9192 23.9745 99.6175 23.9745H100.568V20.7089H100.564Z" fill="#2D3748"/>
</svg>
