<svg width="57" height="36" viewBox="0 0 57 36" fill="none" xmlns="http://www.w3.org/2000/svg">
<path d="M9.37775 35.283C3.24129 35.283 0 27.4012 0 19.2203C0 10.4409 3.88955 0.96344 10.4748 0.96344C12.5692 0.96344 13.7161 2.06049 14.3145 3.20741C9.02575 3.75594 4.93674 10.3911 4.93674 19.3699C4.93674 24.5559 7.13084 28.4983 10.0759 28.4983C13.7161 28.4983 15.1123 22.8634 15.1123 18.6717C15.1123 12.2361 13.5665 8.14708 11.6716 8.14708C11.3724 8.14708 11.1231 8.19695 10.8737 8.29668C11.3225 7.24949 12.3697 6.6511 13.7161 6.6511C17.6056 6.6511 19.2542 11.89 19.2542 18.1232C19.2542 26.9524 16.0627 35.283 9.37775 35.283Z" fill="#2D3748"/>
<path d="M51.563 35.283H49.3689C46.3769 35.283 45.3298 32.5404 44.9308 29.0468H44.8311C43.8836 32.2881 42.0386 35.283 38.5949 35.283C35.8523 35.283 34.5059 32.7398 34.104 29.8975H34.0043C33.0569 33.1388 31.2617 35.283 27.1199 35.283C23.5794 35.283 22.5322 31.7425 22.5322 28.598V19.0707C22.5322 17.8739 21.1858 17.4251 20.1885 16.9264L27.0729 12.8374V28.5482C29.5662 28.4484 33.0099 26.3042 33.0099 23.1626V13.2364C33.0099 12.0396 31.6635 11.5908 30.6662 11.0921L37.5507 6.90336V28.5511C40.044 28.4514 43.4877 26.3071 43.4877 23.1656V7.05003C43.4877 5.85324 42.1413 5.40445 41.1439 4.90579L48.0284 0.717041V24.509C48.0284 26.7031 48.7265 28.4983 50.0729 28.4983H54.0622C55.1592 28.4983 56.007 27.6007 56.8048 26.6533C56.3032 29.5455 55.5054 35.283 51.563 35.283Z" fill="#2D3748"/>
</svg>
