<svg width="74" height="32" viewBox="0 0 74 32" fill="none" xmlns="http://www.w3.org/2000/svg">
<path d="M4.48599 19.345H11.8558V23.0031H0V0H4.48599V19.345Z" fill="#0066FF"/>
<path d="M22.5896 23.2997C20.8807 23.2997 19.3426 22.9152 17.9755 22.1462C16.6083 21.3553 15.5296 20.2458 14.7392 18.8177C13.9701 17.3896 13.5856 15.7418 13.5856 13.8744C13.5856 12.0069 13.9808 10.3591 14.7712 8.931C15.583 7.50292 16.6831 6.40439 18.0716 5.63543C19.4601 4.84449 21.0089 4.44902 22.7178 4.44902C24.4268 4.44902 25.9755 4.84449 27.364 5.63543C28.7525 6.40439 29.842 7.50292 30.6324 8.931C31.4441 10.3591 31.85 12.0069 31.85 13.8744C31.85 15.7418 31.4334 17.3896 30.6003 18.8177C29.7886 20.2458 28.6778 21.3553 27.2679 22.1462C25.8794 22.9152 24.32 23.2997 22.5896 23.2997ZM22.5896 19.2791C23.4014 19.2791 24.1597 19.0814 24.8647 18.6859C25.591 18.2685 26.1678 17.6533 26.595 16.8404C27.0222 16.0275 27.2358 15.0388 27.2358 13.8744C27.2358 12.1387 26.7872 10.8095 25.89 9.88671C25.0142 8.94198 23.9354 8.46962 22.6537 8.46962C21.372 8.46962 20.2932 8.94198 19.4174 9.88671C18.5629 10.8095 18.1357 12.1387 18.1357 13.8744C18.1357 15.61 18.5523 16.9502 19.3854 17.895C20.2398 18.8177 21.3079 19.2791 22.5896 19.2791Z" fill="#0066FF"/>
<path d="M42.0939 4.44902C43.4184 4.44902 44.5826 4.72365 45.5866 5.27291C46.5906 5.80021 47.381 6.49228 47.9577 7.34912V4.74562H52.4758V23.1349C52.4758 24.8266 52.1447 26.3316 51.4825 27.6498C50.8202 28.99 49.8269 30.0446 48.5025 30.8136C47.178 31.6045 45.5759 32 43.6961 32C41.1754 32 39.1033 31.3958 37.4798 30.1874C35.8776 28.9791 34.9697 27.3313 34.7561 25.2441H39.2101C39.4451 26.079 39.9471 26.7381 40.7161 27.2214C41.5065 27.7267 42.4571 27.9794 43.5679 27.9794C44.871 27.9794 45.9284 27.573 46.7401 26.76C47.5519 25.9691 47.9577 24.7607 47.9577 23.1349V20.3007C47.381 21.1576 46.5799 21.8716 45.5545 22.4428C44.5505 23.0141 43.397 23.2997 42.0939 23.2997C40.5986 23.2997 39.2314 22.9042 37.9925 22.1133C36.7535 21.3223 35.7708 20.2128 35.0445 18.7848C34.3396 17.3347 33.9871 15.6759 33.9871 13.8084C33.9871 11.9629 34.3396 10.3261 35.0445 8.89804C35.7708 7.46996 36.7428 6.37144 37.9604 5.60247C39.1994 4.8335 40.5772 4.44902 42.0939 4.44902ZM47.9577 13.8744C47.9577 12.7539 47.7441 11.7981 47.3169 11.0072C46.8897 10.1943 46.3129 9.57913 45.5866 9.16169C44.8603 8.72228 44.0806 8.50257 43.2475 8.50257C42.4144 8.50257 41.6453 8.71129 40.9404 9.12873C40.2354 9.54617 39.6587 10.1613 39.2101 10.9743C38.7828 11.7652 38.5692 12.7099 38.5692 13.8084C38.5692 14.907 38.7828 15.8737 39.2101 16.7085C39.6587 17.5215 40.2354 18.1476 40.9404 18.587C41.6667 19.0264 42.4357 19.2461 43.2475 19.2461C44.0806 19.2461 44.8603 19.0374 45.5866 18.62C46.3129 18.1806 46.8897 17.5654 47.3169 16.7745C47.7441 15.9616 47.9577 14.9949 47.9577 13.8744Z" fill="#0066FF"/>
<path d="M64.7396 23.2997C63.0307 23.2997 61.4926 22.9152 60.1255 22.1462C58.7583 21.3553 57.6796 20.2458 56.8892 18.8177C56.1201 17.3896 55.7356 15.7418 55.7356 13.8744C55.7356 12.0069 56.1308 10.3591 56.9212 8.931C57.733 7.50292 58.8331 6.40439 60.2216 5.63543C61.6101 4.84449 63.1589 4.44902 64.8678 4.44902C66.5768 4.44902 68.1255 4.84449 69.514 5.63543C70.9025 6.40439 71.992 7.50292 72.7824 8.931C73.5941 10.3591 74 12.0069 74 13.8744C74 15.7418 73.5834 17.3896 72.7503 18.8177C71.9386 20.2458 70.8278 21.3553 69.4179 22.1462C68.0294 22.9152 66.4699 23.2997 64.7396 23.2997ZM64.7396 19.2791C65.5514 19.2791 66.3097 19.0814 67.0147 18.6859C67.741 18.2685 68.3177 17.6533 68.745 16.8404C69.1722 16.0275 69.3858 15.0388 69.3858 13.8744C69.3858 12.1387 68.9372 10.8095 68.04 9.88671C67.1642 8.94198 66.0854 8.46962 64.8037 8.46962C63.522 8.46962 62.4432 8.94198 61.5674 9.88671C60.7129 10.8095 60.2857 12.1387 60.2857 13.8744C60.2857 15.61 60.7023 16.9502 61.5354 17.895C62.3898 18.8177 63.4579 19.2791 64.7396 19.2791Z" fill="#0066FF"/>
</svg>
